<svg id="Layer_1" enable-background="new 0 0 512 512" height="512" viewBox="0 0 512 512" width="512" xmlns="http://www.w3.org/2000/svg"><g><g><g><path d="m445.07 496.424-27.82 1.19-161.249 6.88-189.399-8.07c-6.87-151.437 0-256.124 0-256.124l189.399-193.606 160.269 163.267 28.8 29.339s6.87 105.688 0 257.124z" fill="#ffe59e"/><path d="m445.07 496.424-27.82 1.19c6.18-128.887 1.77-238.625-.98-287.654l28.8 29.339c0 .001 6.87 105.689 0 257.125z" fill="#ffca6c"/><path d="m430.41 154.202-24.27-22.849-32.56-30.649c.75-30.379 2.4-51.159 2.4-51.159 10.54-1.14 20.22-1.46 28.29-1.4 14.37.1 23.65 1.4 23.65 1.4s3.81 47.968 2.49 104.657z" fill="#f77173"/><path d="m430.41 154.202-24.27-22.849c-.26-31.689-1-59.829-1.87-83.208 14.37.1 23.65 1.4 23.65 1.4s3.81 47.968 2.49 104.657z" fill="#ed485c"/><path d="m504.5 237.42s-14.63 21.92-33.42 30.639c0 0-6.99-8.14-19.2-21.53-35.58-39.048-115.54-122.816-195.879-179.835-107.88 76.568-215.079 201.365-215.079 201.365-18.79-8.72-33.42-30.639-33.42-30.639s92.97-121.657 248.499-229.915c113.289 78.859 193.389 164.827 228.539 205.696 13.1 15.239 19.96 24.219 19.96 24.219z" fill="#feaf82"/><path d="m504.5 237.42s-14.63 21.92-33.42 30.639c0 0-6.99-8.14-19.2-21.53 21.16-13.88 29.45-25.709 32.66-33.329 13.1 15.24 19.96 24.22 19.96 24.22z" fill="#dd927a"/></g></g><g><path d="m383.569 398.311c-6.49 1.37-12.48 2.29-17.57 2.9-10.22 1.22-16.86 1.22-16.86 1.22v-95.12s6.63 0 16.83 1.22c5.1.61 11.09 1.53 17.6 2.9 0 0 5.55 41.68 0 86.88z" fill="#a1adb4"/><path d="m383.569 398.311c-6.49 1.37-12.48 2.29-17.57 2.9 3.69-39.25 1.55-75.02-.03-92.68 5.1.61 11.09 1.53 17.6 2.9 0 0 5.55 41.68 0 86.88z" fill="#6f7f8f"/></g><g><path d="m346.139 425.241c-6.75 1.86-14.03 3.25-20.55 4.27-11.24 1.76-20.21 2.4-20.21 2.4 8.7-83.63 0-154.08 0-154.08s8.52.5 20.18 2.36c6.23 1 13.37 2.39 20.58 4.31 0 0 9 67.52 0 140.74z" fill="#a1adb4"/><path d="m346.139 425.241c-6.75 1.86-14.03 3.25-20.55 4.27 6.63-64.97 2.4-124.41-.03-149.32 6.23 1 13.37 2.39 20.58 4.31 0 0 9 67.52 0 140.74z" fill="#6f7f8f"/></g><g><path d="m128.436 398.311c6.49 1.37 12.48 2.29 17.57 2.9 10.22 1.22 16.86 1.22 16.86 1.22v-95.12s-6.63 0-16.83 1.22c-5.1.61-11.09 1.53-17.6 2.9 0 0-5.55 41.68 0 86.88z" fill="#6f7f8f"/><path d="m128.436 398.311c6.49 1.37 12.48 2.29 17.57 2.9-3.69-39.25-1.55-75.02.03-92.68-5.1.61-11.09 1.53-17.6 2.9 0 0-5.55 41.68 0 86.88z" fill="#a1adb4"/></g><g><path d="m165.866 425.241c6.75 1.86 14.03 3.25 20.55 4.27 11.24 1.76 20.21 2.4 20.21 2.4-8.7-83.63 0-154.08 0-154.08s-8.52.5-20.18 2.36c-6.23 1-13.37 2.39-20.58 4.31 0 0-9 67.52 0 140.74z" fill="#6f7f8f"/><path d="m165.866 425.241c6.75 1.86 14.03 3.25 20.55 4.27-6.63-64.97-2.4-124.41.03-149.32-6.23 1-13.37 2.39-20.58 4.31 0 0-9 67.52 0 140.74z" fill="#a1adb4"/></g><circle cx="256" cy="181.983" fill="#fff" r="34.548"/></g><g><path d="m59.898 177.174c1.452 1.383 3.313 2.069 5.172 2.069 1.98 0 3.958-.78 5.432-2.328 39.483-41.455 103.468-102.603 185.498-160.262 11.341 7.972 22.719 16.277 33.887 24.737 3.301 2.5 8.006 1.852 10.507-1.45s1.852-8.006-1.45-10.507c-12.733-9.646-25.74-19.097-38.659-28.089-2.573-1.791-5.992-1.792-8.569 0-85.115 59.245-151.432 122.551-192.075 165.227-2.858 2.999-2.742 7.746.257 10.603z"/><path d="m510.459 232.866c-.415-.543-26.186-34.015-72.492-81.078 1.137-55.312-2.534-102.374-2.572-102.851-.278-3.506-2.956-6.348-6.438-6.834-.963-.134-23.905-3.255-53.776-.029-3.585.387-6.387 3.269-6.672 6.863-.013.171-1.11 14.141-1.923 35.58-12.79-11.173-26.335-22.56-40.596-34-3.232-2.592-7.952-2.074-10.544 1.158-2.592 3.231-2.073 7.952 1.157 10.543 99.263 79.624 163.313 156.488 178.471 175.367-4.283 5.492-12.497 14.975-22.287 21.03-20.495-23.253-116.696-130.09-212.444-198.051-2.6-1.846-6.082-1.846-8.682 0-95.751 67.962-191.949 174.797-212.444 198.05-9.759-6.047-17.993-15.545-22.287-21.04 4.961-6.195 15.153-18.606 30.007-35.174 2.766-3.084 2.507-7.826-.577-10.591-3.086-2.766-7.827-2.505-10.591.577-22.057 24.602-33.742 39.844-34.228 40.48-1.947 2.547-2.059 6.051-.279 8.717.646.966 16.032 23.776 36.504 33.277 3.044 1.414 6.659.63 8.847-1.917.204-.237 4.26-4.938 11.426-12.913-1.977 45.076-3.489 129.697.706 228.509-19.38-1.736-30.285-3.058-30.601-3.097-4.119-.501-7.854 2.417-8.36 6.527-.507 4.111 2.415 7.854 6.526 8.361.945.118 96.226 11.67 229.69 11.67 133.463 0 228.745-11.552 229.691-11.668 4.111-.507 7.033-4.25 6.526-8.361-.506-4.111-4.251-7.028-8.36-6.527-.318.039-11.345 1.375-30.931 3.126.569-13.375 1.054-26.896 1.444-40.305.12-4.14-3.139-7.594-7.279-7.714-.074-.002-.148-.003-.222-.003-4.041 0-7.375 3.216-7.493 7.282-.406 13.984-.917 28.09-1.518 42.022-40.392 3.264-104.669 7.148-181.858 7.148-77.4 0-141.817-3.905-182.188-7.175-5.844-135.336-.673-232.999.161-247.25 37.883-40.9 109.832-114.545 182.027-166.67 72.011 51.993 143.778 125.396 181.738 166.358.749 13.119 4.02 77.144 2.473 169.186-.069 4.142 3.231 7.555 7.373 7.625.043 0 .086.001.129.001 4.083 0 7.427-3.275 7.496-7.374 1.18-70.191-.43-124.245-1.609-152.071 7.391 8.219 11.58 13.074 11.787 13.315 1.46 1.699 3.555 2.613 5.692 2.613 1.065 0 2.142-.228 3.154-.697 20.472-9.501 35.858-32.311 36.504-33.277 1.781-2.667 1.669-6.17-.278-8.718zm-87.295-95.88c-12.745-12.54-26.769-25.821-41.995-39.532.512-18.528 1.345-33.206 1.854-41.051 16.535-1.326 30.37-.657 37.853-.05.825 12.784 2.522 43.891 2.288 80.633z"/><path d="m299.986 437.127c1.418 1.464 3.364 2.283 5.388 2.283.178 0 .356-.006.535-.019.944-.068 23.343-1.715 42.227-6.92 2.928-.807 5.08-3.301 5.451-6.316.68-5.531 1.259-11.024 1.749-16.454 6.374-.378 17.125-1.382 29.781-4.051 3.136-.661 5.505-3.243 5.896-6.424 1.676-13.642 2.37-26.908 2.513-38.849 9.238 1.117 14.484 1.9 14.55 1.91.377.057.752.084 1.122.084 3.649 0 6.85-2.669 7.408-6.387.614-4.096-2.207-7.915-6.303-8.531-.295-.044-6.278-.938-16.877-2.196-.5-20.063-2.291-33.831-2.422-34.819-.42-3.149-2.778-5.692-5.887-6.348-12.676-2.673-23.441-3.676-29.811-4.053-.848-9.788-1.622-15.733-1.728-16.528-.401-3.009-2.576-5.479-5.51-6.258-21.201-5.628-41.406-6.858-42.257-6.908-2.217-.123-4.385.735-5.907 2.358s-2.245 3.839-1.973 6.048c.053.428 3.243 26.982 3.726 66.344-15.527-.622-30.92-.937-45.865-.937-14.813 0-30.067.309-45.449.92.484-39.353 3.673-65.899 3.726-66.327.272-2.209-.45-4.425-1.973-6.048-1.521-1.623-3.69-2.482-5.907-2.358-.851.05-21.056 1.279-42.257 6.908-2.934.779-5.108 3.25-5.51 6.258-.058.436-.844 6.407-1.71 16.527-6.367.376-17.141 1.378-29.829 4.054-3.108.655-5.467 3.199-5.887 6.348-.131.987-1.919 14.733-2.421 34.77-10.856 1.283-16.993 2.2-17.295 2.245-4.096.616-6.917 4.435-6.303 8.531.559 3.719 3.758 6.387 7.408 6.387.37 0 .745-.027 1.122-.084.068-.01 5.469-.817 14.965-1.961.141 11.955.835 25.238 2.513 38.9.392 3.181 2.761 5.763 5.896 6.424 12.66 2.67 23.414 3.674 29.786 4.051.501 5.582 1.082 11.072 1.743 16.453.371 3.015 2.523 5.509 5.451 6.316 18.884 5.205 41.282 6.852 42.227 6.92.179.013.357.019.535.019 2.023 0 3.971-.818 5.388-2.283 1.543-1.593 2.302-3.788 2.072-5.994-2.643-25.393-3.653-49.648-3.788-71.043 15.401-.62 30.673-.934 45.494-.934 14.953 0 30.364.319 45.91.951-.135 21.391-1.146 45.64-3.788 71.026-.226 2.207.532 4.401 2.075 5.995zm76.733-119.399c1.166 11.829 3.39 41.854.017 74.28-8.216 1.488-15.309 2.218-20.247 2.576 1.952-31.119 1.173-59.258-.069-79.439 4.925.354 12.027 1.083 20.299 2.583zm-62.961-31.584c6.447.742 15.742 2.078 25.534 4.375 1.762 16.384 6.518 70.492.003 128.727-9.163 2.156-18.822 3.52-25.573 4.304 5.619-62.233 1.942-116.443.036-137.406zm-141.053 133.102c-1.811-16.185-2.897-33.326-3.232-51.03-.078-4.093-3.42-7.358-7.496-7.358-.048 0-.097 0-.145.001-4.142.078-7.436 3.499-7.357 7.641.168 8.844.519 17.554 1.05 26.086-4.939-.358-12.037-1.088-20.26-2.577-3.373-32.426-1.149-62.451.017-74.279 8.263-1.496 15.391-2.225 20.33-2.581-.309 5.065-.589 10.638-.807 16.645-.15 4.14 3.084 7.617 7.224 7.767 4.163.147 7.617-3.084 7.767-7.223.705-19.442 2.113-34.443 2.911-41.817 9.773-2.29 19.081-3.628 25.536-4.373-1.905 20.966-5.582 75.177.038 137.404-6.749-.784-16.4-2.146-25.576-4.306z"/><path d="m256 224.031c23.186 0 42.048-18.863 42.048-42.048s-18.863-42.048-42.048-42.048-42.048 18.862-42.048 42.047 18.862 42.049 42.048 42.049zm0-69.096c14.914 0 27.048 12.133 27.048 27.047s-12.134 27.049-27.048 27.049-27.048-12.134-27.048-27.048 12.134-27.048 27.048-27.048z"/></g></svg>