<svg height="480pt" viewBox="0 -24 480 480" width="480pt" xmlns="http://www.w3.org/2000/svg"><path d="m315.792969 384c.3125 2.007812-.269531 4.050781-1.59375 5.59375-1.328125 1.539062-3.261719 2.417969-5.296875 2.40625h-137.804688c-2.035156.011719-3.96875-.867188-5.296875-2.40625-1.324219-1.542969-1.90625-3.585938-1.59375-5.59375 6.890625-24 15.433594-24 34.449219-24h13.785156v-56c-.273437-4.097656 2.792969-7.660156 6.886719-8h41.34375c4.09375.339844 7.160156 3.902344 6.886719 8v56h13.785156c19.015625 0 27.558594 0 34.449219 24zm0 0" fill="#161616"/><path d="m32 8h416c13.253906 0 24 10.746094 24 24v256c0 13.253906-10.746094 24-24 24h-416c-13.253906 0-24-10.746094-24-24v-256c0-13.253906 10.746094-24 24-24zm0 0" fill="#333"/><path d="m48 40h384c4.417969 0 8 3.582031 8 8v224c0 4.417969-3.582031 8-8 8h-384c-4.417969 0-8-3.582031-8-8v-224c0-4.417969 3.582031-8 8-8zm0 0" fill="#b3b3b3"/><path d="m400 150.398438c-.21875 17.757812-8.09375 34.558593-21.601562 46.089843-10.996094 9.183594-24.910157 14.144531-39.238282 13.992188-22.050781-.378907-42.820312-10.425781-56.800781-27.480469-25.597656-30.503906-24.085937-74 3.320313-97.007812 27.410156-23.007813 70.535156-16.953126 96.144531 13.601562 12.058593 14.148438 18.523437 32.21875 18.175781 50.804688zm0 0" fill="#ffcc5c"/><path d="m336 208-163.59375 118.113281c-7.226562 5.117188-15.796875 7.996094-24.644531 8.285157-12.125-.765626-24.125-2.914063-35.761719-6.398438-14.398438-14.488281-11.457031-43.902344 4-58.398438l156-141.601562zm0 0" fill="#003d5c"/><path d="m239.996094 202.214844 21.777344-18.214844 18.214843 21.773438-21.777343 18.21875zm0 0" fill="#003d5c"/><path d="m456 0h-432c-13.253906 0-24 10.746094-24 24v272c0 13.253906 10.746094 24 24 24h73.183594c.796875 2.261719 1.792968 4.449219 2.976562 6.535156l-34.023437 23.863282c-15.609375 11.710937-21.972657 32.09375-15.800781 50.601562 6.167968 18.511719 23.488281 30.996094 43 31h266.664062c4.417969 0 8-3.582031 8-8s-3.582031-8-8-8h-266.664062c-12.578126-.007812-23.753907-8.027344-27.785157-19.941406-4.027343-11.917969-.015625-25.074219 9.976563-32.714844l35.359375-24.800781c7.5 5.671875 16.660156 8.714843 26.066406 8.65625 11.65625-.136719 22.960937-4.023438 32.238281-11.085938l21.472656-16.113281h17.335938v32h-16c-22.082031.027344-39.972656 17.917969-40 40 0 4.417969 3.582031 8 8 8h160c4.417969 0 8-3.582031 8-8-.027344-22.082031-17.917969-39.972656-40-40h-16v-32h184c13.253906 0 24-10.746094 24-24v-272c0-13.253906-10.746094-24-24-24zm-182.199219 124.496094c1.367188-9.972656 5.578125-19.339844 12.136719-26.976563l81.261719 96.878907c-8.6875 5.089843-18.652344 7.574218-28.710938 7.160156-.316406-.742188-.742187-1.4375-1.265625-2.054688l-.183594-.222656-61.503906-73.234375c-.5-.597656-1.082031-1.121094-1.734375-1.550781zm105.695313 59.640625-81.3125-96.9375c10.640625-6.214844 23.105468-8.539063 35.273437-6.582031 16.515625 2.632812 31.492188 11.238281 42.085938 24.183593 20.648437 24.671875 21.777343 58.503907 3.953125 79.335938zm-50.695313 32.390625c1.863281.289062 3.71875.640625 5.597657.800781 2.136718.1875 4.246093.277344 6.335937.273437 15.84375.132813 31.226563-5.347656 43.417969-15.464843 30.398437-25.511719 32-73.769531 3.703125-107.601563-13.113281-15.929687-31.613281-26.5-52-29.703125-19.113281-3.15625-38.667969 1.992188-53.75 14.152344-.257813.175781-.511719.351563-.753907.550781-13.730468 11.648438-22.265624 28.273438-23.734374 46.21875-.160157 1.933594-.128907 3.863282-.160157 5.796875l-145.5625 136.449219c-1.367187 1.3125-2.589843 2.59375-3.703125 3.855469l-.152344.144531h-60.039062v-224h384v224h-177.257812zm-169.183593 106.738281c-14.089844 10.503906-32.679688 10.398437-42.6875-.59375-.167969-.191406-.699219-.800781-.875-.96875l-.117188-.117187c-2.5-3.191407-4.152344-6.960938-4.800781-10.960938-1.324219-9.226562 1.246093-18.589844 7.09375-25.847656 1.40625-1.855469 2.960937-3.585938 4.648437-5.183594l145.816406-136.800781 50.914063 60.632812-93.6875 70.175781-42.707031 32zm151.015624 60.734375h-141.265624c3.402343-9.582031 12.464843-15.988281 22.632812-16h96c10.167969.011719 19.230469 6.417969 22.632812 16zm-54.632812-32h-32v-32h32zm208-56c0 4.417969-3.582031 8-8 8h-244l21.359375-16h206.640625c4.417969 0 8-3.582031 8-8v-240c0-4.417969-3.582031-8-8-8h-400c-4.417969 0-8 3.582031-8 8v240c0 4.417969 3.582031 8 8 8h58.246094c-.125.320312-.277344.632812-.398438.960938-.054687.144531-.085937.285156-.144531.429687-.71875 2.035156-1.308594 4.109375-1.765625 6.21875-.113281.527344-.234375 1.039063-.328125 1.597656-.429687 2.199219-.695313 4.425781-.800781 6.664063v.160156h-70.808594c-4.417969 0-8-3.582031-8-8v-272.03125c0-4.417969 3.582031-8 8-8h432c4.417969 0 8 3.582031 8 8zm0 0"/><path d="m250.351562 230.742188c1.363282 1.625 3.320313 2.640624 5.433594 2.824218.230469.011719.464844.011719.695313 0 1.882812 0 3.703125-.660156 5.144531-1.871094l24.480469-20.558593c1.625-1.363281 2.644531-3.320313 2.828125-5.4375.1875-2.113281-.480469-4.21875-1.84375-5.84375l-20.570313-24.472657c-2.84375-3.375-7.882812-3.8125-11.261719-.976562l-24.480468 20.554688c-3.378906 2.839843-3.816406 7.882812-.976563 11.261718zm9.0625-38.910157 10.273438 12.230469-12.222656 10.265625-10.265625-12.222656zm0 0"/><path d="m400 416h-8c-4.417969 0-8 3.582031-8 8s3.582031 8 8 8h8c4.417969 0 8-3.582031 8-8s-3.582031-8-8-8zm0 0"/><path d="m440 416h-8c-4.417969 0-8 3.582031-8 8s3.582031 8 8 8h8c4.417969 0 8-3.582031 8-8s-3.582031-8-8-8zm0 0"/><path d="m166.679688 72.113281-48 8c-3.855469.644531-6.679688 3.980469-6.679688 7.886719v40c-8.835938 0-16 7.164062-16 16s7.164062 16 16 16 16-7.164062 16-16v-49.222656l32-5.328125v30.550781c-8.835938 0-16 7.164062-16 16s7.164062 16 16 16 16-7.164062 16-16v-56c0-2.351562-1.035156-4.585938-2.832031-6.105469-1.800781-1.507812-4.167969-2.160156-6.488281-1.78125zm0 0"/></svg>